<svg width="80" height="80" viewBox="0 0 80 80" fill="none" xmlns="http://www.w3.org/2000/svg">
<rect width="80" height="80" rx="10" fill="#D0D0D0"/>
<path d="M30.2778 44.1667L37.2222 52.5L46.9444 40L59.4444 56.6667H20.5556M65 59.4444V20.5556C65 17.4722 62.5 15 59.4444 15H20.5556C19.0821 15 17.6691 15.5853 16.6272 16.6272C15.5853 17.6691 15 19.0821 15 20.5556V59.4444C15 60.9179 15.5853 62.3309 16.6272 63.3728C17.6691 64.4147 19.0821 65 20.5556 65H59.4444C60.9179 65 62.3309 64.4147 63.3728 63.3728C64.4147 62.3309 65 60.9179 65 59.4444Z" fill="black"/>
</svg>
