<svg width="80" height="80" viewBox="0 0 80 80" fill="none" xmlns="http://www.w3.org/2000/svg">
<rect width="80" height="80" rx="10" fill="#D0D0D0"/>
<path d="M65 25.5263V40.8158C63.475 39.8947 61.8 39.2632 60 38.9211V25.5263H20V51.8421H42.725C42.6 52.7105 42.5 53.5789 42.5 54.4737C42.5 55.3684 42.6 56.2368 42.725 57.1053H20C17.25 57.1053 15 54.7632 15 51.8421V20.2632C15 17.3421 17.225 15 20 15H35L40 20.2632H60C62.75 20.2632 65 22.6053 65 25.5263ZM60 46.5789H55V57.1053H50L57.5 65L65 57.1053H60V46.5789Z" fill="black"/>
</svg>
