<svg width="100" height="45" viewBox="0 0 100 45" fill="none" xmlns="http://www.w3.org/2000/svg">
<rect width="100" height="45" rx="20" fill="#5EC4E4"/>
<path d="M47.4164 22.1398C47.0044 22.87 46.6631 23.6746 46.463 24.5286C43.2967 24.8133 40.2364 26.3729 40.2364 27.0908V28.4523H46.4747C46.6748 29.294 47.0044 30.0861 47.4164 30.804H38V27.0908C38 23.7984 44.2737 22.1398 47.4164 22.1398ZM47.4164 11C48.6651 11 49.8626 11.5216 50.7456 12.4501C51.6285 13.3786 52.1246 14.6379 52.1246 15.951C52.1246 17.0774 51.7597 18.1171 51.1594 18.9587C50.1471 19.3548 49.2408 19.9861 48.4875 20.7782L47.4164 20.902C46.1677 20.902 44.9701 20.3804 44.0872 19.4519C43.2042 18.5234 42.7082 17.2641 42.7082 15.951C42.7082 14.6379 43.2042 13.3786 44.0872 12.4501C44.9701 11.5216 46.1677 11 47.4164 11ZM47.4164 13.3517C46.7608 13.3517 46.1321 13.6256 45.6686 14.113C45.205 14.6005 44.9446 15.2616 44.9446 15.951C44.9446 16.6404 45.205 17.3015 45.6686 17.789C46.1321 18.2764 46.7608 18.5503 47.4164 18.5503C48.0719 18.5503 48.7007 18.2764 49.1642 17.789C49.6278 17.3015 49.8882 16.6404 49.8882 15.951C49.8882 15.2616 49.6278 14.6005 49.1642 14.113C48.7007 13.6256 48.0719 13.3517 47.4164 13.3517ZM53.8901 20.902C56.8328 20.902 59.1869 23.3775 59.1869 26.4719C59.1869 27.5611 58.8926 28.5884 58.3747 29.4425L62 33.2795L60.3639 35L56.6915 31.2001C55.8794 31.7323 54.9142 32.0418 53.8901 32.0418C50.9475 32.0418 48.5934 29.5663 48.5934 26.4719C48.5934 23.3775 50.9475 20.902 53.8901 20.902ZM53.8901 23.3775C53.1097 23.3775 52.3612 23.7035 51.8094 24.2838C51.2575 24.8641 50.9475 25.6512 50.9475 26.4719C50.9475 27.2926 51.2575 28.0796 51.8094 28.66C52.3612 29.2403 53.1097 29.5663 53.8901 29.5663C54.6706 29.5663 55.419 29.2403 55.9709 28.66C56.5227 28.0796 56.8328 27.2926 56.8328 26.4719C56.8328 25.6512 56.5227 24.8641 55.9709 24.2838C55.419 23.7035 54.6706 23.3775 53.8901 23.3775Z" fill="white"/>
</svg>
