<svg width="100" height="45" viewBox="0 0 100 45" fill="none" xmlns="http://www.w3.org/2000/svg">
<rect width="100" height="45" rx="20" fill="#5EC4E4"/>
<path d="M46.9143 11C49.2785 11 51.5459 11.9392 53.2176 13.6109C54.8894 15.2827 55.8286 17.5501 55.8286 19.9143C55.8286 22.1223 55.0194 24.152 53.6891 25.7154L54.0594 26.0857H55.1429L62 32.9429L59.9429 35L53.0857 28.1429V27.0594L52.7154 26.6891C51.152 28.0194 49.1223 28.8286 46.9143 28.8286C44.5501 28.8286 42.2827 27.8894 40.6109 26.2176C38.9392 24.5459 38 22.2785 38 19.9143C38 17.5501 38.9392 15.2827 40.6109 13.6109C42.2827 11.9392 44.5501 11 46.9143 11ZM46.9143 13.7429C43.4857 13.7429 40.7429 16.4857 40.7429 19.9143C40.7429 23.3429 43.4857 26.0857 46.9143 26.0857C50.3429 26.0857 53.0857 23.3429 53.0857 19.9143C53.0857 16.4857 50.3429 13.7429 46.9143 13.7429Z" fill="white"/>
</svg>
